# xmcd
# 
# Track frame offsets:
#     150
#     19443
#     34618
#     51465
#     69955
#     88577
#     102315
#     122209
#     137614
#     154573
#     171211
#     187736
# 
# Disc length: 2788
# 
# Revision: 4
# Processed by: cddbd v1.5.2PL0 Copyright (c) Steve Scherf et al.
# Submitted via: fre:ac v1.1beta1pre3
# 
DISCID=9a0ae20c
DTITLE=Billy Ray Cyrus - Back To Tennessee
DYEAR=2009
DGENRE=Country
TTITLE0=Back to Tennessee
TTITLE1=Thrillbilly
TTITLE2=He's Mine
TTITLE3=Somebody Said a Prayer
TTITLE4=A Good Day
TTITLE5=I Could Be The One
TTITLE6=Like Nothing Else
TTITLE7=Country As Country Can Be
TTITLE8=Love Is The Lesson
TTITLE9=Give It To Somebody
TTITLE10=Real One
TTITLE11=Butterfly Fly Away Featuring Miley Cyrus
EXTD=YEAR: 2009
EXTT0=
EXTT1=
EXTT2=
EXTT3=
EXTT4=
EXTT5=
EXTT6=
EXTT7=
EXTT8=
EXTT9=
EXTT10=
EXTT11=
PLAYORDER=
